<svg width="28" height="28" viewBox="0 0 28 28" fill="none" xmlns="http://www.w3.org/2000/svg">
<rect width="28" height="28" rx="8" fill="#1447E6"/>
<path d="M8.34304 7.90909V21H5.57528V7.90909H8.34304ZM15.5613 16.4489H17.9135L19.0961 17.9702L20.2594 19.3253L22.4519 22.0739H19.8695L18.361 20.2202L17.5875 19.1207L15.5613 16.4489ZM22.65 14.4545C22.65 15.8821 22.3794 17.0966 21.8382 18.098C21.3013 19.0994 20.5684 19.8643 19.6394 20.3928C18.7147 20.9169 17.6749 21.179 16.5201 21.179C15.3567 21.179 14.3127 20.9148 13.388 20.3864C12.4632 19.858 11.7324 19.093 11.1955 18.0916C10.6586 17.0902 10.3901 15.8778 10.3901 14.4545C10.3901 13.027 10.6586 11.8125 11.1955 10.8111C11.7324 9.80966 12.4632 9.04687 13.388 8.52273C14.3127 7.99432 15.3567 7.73011 16.5201 7.73011C17.6749 7.73011 18.7147 7.99432 19.6394 8.52273C20.5684 9.04687 21.3013 9.80966 21.8382 10.8111C22.3794 11.8125 22.65 13.027 22.65 14.4545ZM19.8439 14.4545C19.8439 13.5298 19.7054 12.75 19.4284 12.1151C19.1557 11.4801 18.7701 10.9986 18.2715 10.6705C17.7729 10.3423 17.1891 10.1783 16.5201 10.1783C15.851 10.1783 15.2672 10.3423 14.7686 10.6705C14.2701 10.9986 13.8823 11.4801 13.6053 12.1151C13.3326 12.75 13.1962 13.5298 13.1962 14.4545C13.1962 15.3793 13.3326 16.1591 13.6053 16.794C13.8823 17.429 14.2701 17.9105 14.7686 18.2386C15.2672 18.5668 15.851 18.7308 16.5201 18.7308C17.1891 18.7308 17.7729 18.5668 18.2715 18.2386C18.7701 17.9105 19.1557 17.429 19.4284 16.794C19.7054 16.1591 19.8439 15.3793 19.8439 14.4545Z" fill="white"/>
</svg>
