<svg width="129" height="28" viewBox="0 0 129 28" fill="none" xmlns="http://www.w3.org/2000/svg">
<rect width="28" height="28" rx="8" fill="#1447E6"/>
<path d="M8.34304 7.90909V21H5.57528V7.90909H8.34304ZM15.5613 16.4489H17.9135L19.0961 17.9702L20.2594 19.3253L22.4519 22.0739H19.8695L18.361 20.2202L17.5875 19.1207L15.5613 16.4489ZM22.65 14.4545C22.65 15.8821 22.3794 17.0966 21.8382 18.098C21.3013 19.0994 20.5684 19.8643 19.6394 20.3928C18.7147 20.9169 17.6749 21.179 16.5201 21.179C15.3567 21.179 14.3127 20.9148 13.388 20.3864C12.4632 19.858 11.7324 19.093 11.1955 18.0916C10.6586 17.0902 10.3901 15.8778 10.3901 14.4545C10.3901 13.027 10.6586 11.8125 11.1955 10.8111C11.7324 9.80966 12.4632 9.04687 13.388 8.52273C14.3127 7.99432 15.3567 7.73011 16.5201 7.73011C17.6749 7.73011 18.7147 7.99432 19.6394 8.52273C20.5684 9.04687 21.3013 9.80966 21.8382 10.8111C22.3794 11.8125 22.65 13.027 22.65 14.4545ZM19.8439 14.4545C19.8439 13.5298 19.7054 12.75 19.4284 12.1151C19.1557 11.4801 18.7701 10.9986 18.2715 10.6705C17.7729 10.3423 17.1891 10.1783 16.5201 10.1783C15.851 10.1783 15.2672 10.3423 14.7686 10.6705C14.2701 10.9986 13.8823 11.4801 13.6053 12.1151C13.3326 12.75 13.1962 13.5298 13.1962 14.4545C13.1962 15.3793 13.3326 16.1591 13.6053 16.794C13.8823 17.429 14.2701 17.9105 14.7686 18.2386C15.2672 18.5668 15.851 18.7308 16.5201 18.7308C17.1891 18.7308 17.7729 18.5668 18.2715 18.2386C18.7701 17.9105 19.1557 17.429 19.4284 16.794C19.7054 16.1591 19.8439 15.3793 19.8439 14.4545Z" fill="white"/>
<path d="M38.2083 7.90909V21H35.4405V7.90909H38.2083ZM43.1573 15.3239V21H40.4343V11.1818H43.0295V12.9141H43.1445C43.3619 12.343 43.7262 11.8913 44.2376 11.5589C44.7489 11.2223 45.369 11.054 46.0977 11.054C46.7795 11.054 47.3739 11.2031 47.881 11.5014C48.3881 11.7997 48.7823 12.2259 49.0636 12.7798C49.3448 13.3295 49.4854 13.9858 49.4854 14.7486V21H46.7624V15.2344C46.7667 14.6335 46.6133 14.1648 46.3022 13.8281C45.9911 13.4872 45.5629 13.3168 45.0174 13.3168C44.6509 13.3168 44.3271 13.3956 44.0458 13.5533C43.7688 13.7109 43.5515 13.9411 43.3938 14.2436C43.2404 14.5419 43.1616 14.902 43.1573 15.3239ZM56.8539 11.1818V13.2273H50.9412V11.1818H56.8539ZM52.2836 8.82955H55.0066V17.983C55.0066 18.2344 55.0449 18.4304 55.1216 18.571C55.1983 18.7074 55.3049 18.8033 55.4412 18.8587C55.5819 18.9141 55.7438 18.9418 55.927 18.9418C56.0549 18.9418 56.1827 18.9311 56.3105 18.9098C56.4384 18.8842 56.5364 18.8651 56.6046 18.8523L57.0328 20.8786C56.8965 20.9212 56.7047 20.9702 56.4576 21.0256C56.2104 21.0852 55.91 21.1214 55.5563 21.1342C54.9 21.1598 54.3248 21.0724 53.8304 20.8722C53.3404 20.6719 52.959 20.3608 52.6863 19.9389C52.4135 19.517 52.2793 18.9844 52.2836 18.3409V8.82955ZM62.9966 21.1918C61.9867 21.1918 61.1174 20.9872 60.3887 20.5781C59.6642 20.1648 59.106 19.581 58.714 18.8267C58.3219 18.0682 58.1259 17.1712 58.1259 16.1357C58.1259 15.1257 58.3219 14.2393 58.714 13.4766C59.106 12.7138 59.6578 12.1193 60.3695 11.6932C61.0854 11.267 61.9249 11.054 62.888 11.054C63.5357 11.054 64.1387 11.1584 64.6969 11.3672C65.2594 11.5717 65.7495 11.8807 66.1671 12.294C66.589 12.7074 66.9171 13.2273 67.1515 13.8537C67.3858 14.4759 67.503 15.2045 67.503 16.0398V16.7876H59.2125V15.1001H64.9398C64.9398 14.7081 64.8546 14.3608 64.6841 14.0582C64.5137 13.7557 64.2772 13.5192 63.9746 13.3487C63.6763 13.174 63.329 13.0866 62.9327 13.0866C62.5194 13.0866 62.1529 13.1825 61.8333 13.3743C61.5179 13.5618 61.2708 13.8153 61.0918 14.1349C60.9128 14.4503 60.8212 14.8018 60.8169 15.1896V16.794C60.8169 17.2798 60.9064 17.6996 61.0854 18.0533C61.2686 18.407 61.5265 18.6797 61.8588 18.8714C62.1912 19.0632 62.5854 19.1591 63.0414 19.1591C63.3439 19.1591 63.6209 19.1165 63.8723 19.0312C64.1238 18.946 64.339 18.8182 64.5179 18.6477C64.6969 18.4773 64.8333 18.2685 64.927 18.0213L67.4455 18.1875C67.3176 18.7926 67.0556 19.321 66.6593 19.7727C66.2672 20.2202 65.7601 20.5696 65.138 20.821C64.5201 21.0682 63.8063 21.1918 62.9966 21.1918ZM69.28 21V11.1818H71.9199V12.8949H72.0222C72.2012 12.2855 72.5016 11.8253 72.9235 11.5142C73.3453 11.1989 73.8311 11.0412 74.3809 11.0412C74.5172 11.0412 74.6642 11.0497 74.8219 11.0668C74.9796 11.0838 75.1181 11.1072 75.2374 11.1371V13.5533C75.1096 13.5149 74.9327 13.4808 74.7069 13.451C74.481 13.4212 74.2743 13.4062 74.0868 13.4062C73.6863 13.4062 73.3283 13.4936 73.013 13.6683C72.7019 13.8388 72.4547 14.0774 72.2715 14.3842C72.0925 14.6911 72.003 15.0447 72.003 15.4453V21H69.28ZM81.6374 16.4489H83.9897L85.1722 17.9702L86.3356 19.3253L88.5281 22.0739H85.9457L84.4371 20.2202L83.6637 19.1207L81.6374 16.4489ZM88.7262 14.4545C88.7262 15.8821 88.4556 17.0966 87.9144 18.098C87.3775 19.0994 86.6445 19.8643 85.7156 20.3928C84.7908 20.9169 83.7511 21.179 82.5962 21.179C81.4329 21.179 80.3888 20.9148 79.4641 20.3864C78.5394 19.858 77.8086 19.093 77.2717 18.0916C76.7347 17.0902 76.4663 15.8778 76.4663 14.4545C76.4663 13.027 76.7347 11.8125 77.2717 10.8111C77.8086 9.80966 78.5394 9.04687 79.4641 8.52273C80.3888 7.99432 81.4329 7.73011 82.5962 7.73011C83.7511 7.73011 84.7908 7.99432 85.7156 8.52273C86.6445 9.04687 87.3775 9.80966 87.9144 10.8111C88.4556 11.8125 88.7262 13.027 88.7262 14.4545ZM85.9201 14.4545C85.9201 13.5298 85.7816 12.75 85.5046 12.1151C85.2319 11.4801 84.8462 10.9986 84.3477 10.6705C83.8491 10.3423 83.2653 10.1783 82.5962 10.1783C81.9272 10.1783 81.3434 10.3423 80.8448 10.6705C80.3462 10.9986 79.9585 11.4801 79.6815 12.1151C79.4087 12.75 79.2724 13.5298 79.2724 14.4545C79.2724 15.3793 79.4087 16.1591 79.6815 16.794C79.9585 17.429 80.3462 17.9105 80.8448 18.2386C81.3434 18.5668 81.9272 18.7308 82.5962 18.7308C83.2653 18.7308 83.8491 18.5668 84.3477 18.2386C84.8462 17.9105 85.2319 17.429 85.5046 16.794C85.7816 16.1591 85.9201 15.3793 85.9201 14.4545ZM97.0215 16.8196V11.1818H99.7445V21H97.1301V19.2166H97.0279C96.8063 19.7919 96.4377 20.2543 95.9221 20.6037C95.4107 20.9531 94.7864 21.1278 94.0492 21.1278C93.3929 21.1278 92.8155 20.9787 92.3169 20.6804C91.8184 20.3821 91.4284 19.9581 91.1472 19.4084C90.8702 18.8587 90.7296 18.2003 90.7253 17.4332V11.1818H93.4483V16.9474C93.4526 17.527 93.6081 17.9851 93.915 18.3217C94.2218 18.6584 94.633 18.8267 95.1486 18.8267C95.4767 18.8267 95.7836 18.7521 96.0691 18.603C96.3546 18.4496 96.5847 18.2237 96.7594 17.9254C96.9384 17.6271 97.0257 17.2585 97.0215 16.8196ZM106.397 21.1918C105.387 21.1918 104.518 20.9872 103.789 20.5781C103.065 20.1648 102.506 19.581 102.114 18.8267C101.722 18.0682 101.526 17.1712 101.526 16.1357C101.526 15.1257 101.722 14.2393 102.114 13.4766C102.506 12.7138 103.058 12.1193 103.77 11.6932C104.486 11.267 105.325 11.054 106.288 11.054C106.936 11.054 107.539 11.1584 108.097 11.3672C108.66 11.5717 109.15 11.8807 109.567 12.294C109.989 12.7074 110.317 13.2273 110.552 13.8537C110.786 14.4759 110.903 15.2045 110.903 16.0398V16.7876H102.613V15.1001H108.34C108.34 14.7081 108.255 14.3608 108.085 14.0582C107.914 13.7557 107.678 13.5192 107.375 13.3487C107.077 13.174 106.729 13.0866 106.333 13.0866C105.92 13.0866 105.553 13.1825 105.234 13.3743C104.918 13.5618 104.671 13.8153 104.492 14.1349C104.313 14.4503 104.222 14.8018 104.217 15.1896V16.794C104.217 17.2798 104.307 17.6996 104.486 18.0533C104.669 18.407 104.927 18.6797 105.259 18.8714C105.592 19.0632 105.986 19.1591 106.442 19.1591C106.744 19.1591 107.021 19.1165 107.273 19.0312C107.524 18.946 107.739 18.8182 107.918 18.6477C108.097 18.4773 108.234 18.2685 108.327 18.0213L110.846 18.1875C110.718 18.7926 110.456 19.321 110.06 19.7727C109.668 20.2202 109.161 20.5696 108.538 20.821C107.92 21.0682 107.207 21.1918 106.397 21.1918ZM120.849 13.9815L118.357 14.1349C118.314 13.9219 118.222 13.7301 118.082 13.5597C117.941 13.3849 117.756 13.2464 117.526 13.1442C117.3 13.0376 117.029 12.9844 116.714 12.9844C116.292 12.9844 115.936 13.0739 115.646 13.2528C115.357 13.4276 115.212 13.6619 115.212 13.956C115.212 14.1903 115.305 14.3885 115.493 14.5504C115.68 14.7124 116.002 14.8423 116.458 14.9403L118.235 15.2983C119.19 15.4943 119.901 15.8097 120.37 16.2443C120.839 16.679 121.073 17.25 121.073 17.9574C121.073 18.6009 120.884 19.1655 120.504 19.6513C120.129 20.1371 119.614 20.5163 118.957 20.7891C118.305 21.0575 117.553 21.1918 116.701 21.1918C115.401 21.1918 114.366 20.9212 113.594 20.38C112.827 19.8345 112.378 19.093 112.246 18.1555L114.924 18.0149C115.005 18.4112 115.201 18.7138 115.512 18.9226C115.823 19.1271 116.222 19.2294 116.707 19.2294C117.185 19.2294 117.568 19.1378 117.858 18.9545C118.152 18.767 118.301 18.5263 118.305 18.2322C118.301 17.9851 118.197 17.7827 117.992 17.625C117.788 17.4631 117.472 17.3395 117.046 17.2543L115.346 16.9155C114.387 16.7237 113.673 16.3913 113.205 15.9183C112.74 15.4453 112.508 14.8423 112.508 14.1094C112.508 13.4787 112.678 12.9354 113.019 12.4794C113.364 12.0234 113.848 11.6719 114.47 11.4247C115.097 11.1776 115.83 11.054 116.669 11.054C117.909 11.054 118.885 11.3161 119.597 11.8402C120.313 12.3643 120.73 13.0781 120.849 13.9815ZM128.01 11.1818V13.2273H122.097V11.1818H128.01ZM123.44 8.82955H126.163V17.983C126.163 18.2344 126.201 18.4304 126.278 18.571C126.355 18.7074 126.461 18.8033 126.597 18.8587C126.738 18.9141 126.9 18.9418 127.083 18.9418C127.211 18.9418 127.339 18.9311 127.467 18.9098C127.595 18.8842 127.693 18.8651 127.761 18.8523L128.189 20.8786C128.053 20.9212 127.861 20.9702 127.614 21.0256C127.367 21.0852 127.066 21.1214 126.713 21.1342C126.056 21.1598 125.481 21.0724 124.987 20.8722C124.497 20.6719 124.115 20.3608 123.843 19.9389C123.57 19.517 123.436 18.9844 123.44 18.3409V8.82955Z" fill="black"/>
</svg>
